<?xml version="1.0" encoding="utf-8"?>
<!-- Generator: Adobe Illustrator 18.1.1, SVG Export Plug-In . SVG Version: 6.00 Build 0)  -->
<!DOCTYPE svg PUBLIC "-//W3C//DTD SVG 1.1//EN" "http://www.w3.org/Graphics/SVG/1.1/DTD/svg11.dtd">
<svg version="1.1" id="Layer_1" xmlns="http://www.w3.org/2000/svg" xmlns:xlink="http://www.w3.org/1999/xlink" x="0px" y="0px"
	 viewBox="-281 373 48 48" enable-background="new -281 373 48 48" xml:space="preserve">
<path fill="#FFFFFF" d="M-234.4,413.2l-10.5-10.5c1.8-3,2.9-6.4,2.9-10.2c0-10.8-8.7-19.5-19.5-19.5c-10.8,0-19.5,8.7-19.5,19.5
	s8.7,19.5,19.5,19.5c3.8,0,7.2-1.1,10.2-2.9l10.5,10.5c1.8,1.8,4.6,1.8,6.4,0S-232.6,415-234.4,413.2z M-261.5,406
	c-7.5,0-13.5-6-13.5-13.5s6-13.5,13.5-13.5c7.5,0,13.5,6,13.5,13.5S-254,406-261.5,406z"/>
</svg>
